<svg xmlns="http://www.w3.org/2000/svg" width="1080" height="620" viewBox="0 0 1080 620">
<rect width="100%" height="100%" fill="white"/>
<text x="540.0" y="34" text-anchor="middle" font-family="Arial" font-size="22" font-weight="700" fill="#111827">Fixed-layer Probing Across Tasks</text>
<text x="540.0" y="58" text-anchor="middle" font-family="Arial" font-size="13" fill="#6b7280">Three task series: SemEval, NER, DEP. Layer 0 is embedding output; layers 1-24 are Transformer layers.</text>
<line x1="86" y1="500.00" x2="1046" y2="500.00" stroke="#e5e7eb"/>
<text x="76" y="504.00" text-anchor="end" font-family="Arial" font-size="12" fill="#6b7280">0.524</text>
<line x1="86" y1="414.80" x2="1046" y2="414.80" stroke="#e5e7eb"/>
<text x="76" y="418.80" text-anchor="end" font-family="Arial" font-size="12" fill="#6b7280">0.616</text>
<line x1="86" y1="329.60" x2="1046" y2="329.60" stroke="#e5e7eb"/>
<text x="76" y="333.60" text-anchor="end" font-family="Arial" font-size="12" fill="#6b7280">0.708</text>
<line x1="86" y1="244.40" x2="1046" y2="244.40" stroke="#e5e7eb"/>
<text x="76" y="248.40" text-anchor="end" font-family="Arial" font-size="12" fill="#6b7280">0.800</text>
<line x1="86" y1="159.20" x2="1046" y2="159.20" stroke="#e5e7eb"/>
<text x="76" y="163.20" text-anchor="end" font-family="Arial" font-size="12" fill="#6b7280">0.892</text>
<line x1="86" y1="74.00" x2="1046" y2="74.00" stroke="#e5e7eb"/>
<text x="76" y="78.00" text-anchor="end" font-family="Arial" font-size="12" fill="#6b7280">0.984</text>
<line x1="86" y1="74" x2="86" y2="500" stroke="#111827"/>
<line x1="86" y1="500" x2="1046" y2="500" stroke="#111827"/>
<polyline points="86.00,462.89 126.00,398.39 166.00,381.62 206.00,388.72 246.00,371.57 286.00,364.06 326.00,351.13 366.00,327.67 406.00,312.21 446.00,304.28 486.00,295.82 526.00,279.74 566.00,275.04 606.00,267.34 646.00,266.60 686.00,260.51 726.00,233.96 766.00,239.67 806.00,243.37 846.00,244.92 886.00,243.92 926.00,257.38 966.00,274.44 1006.00,291.29 1046.00,419.05" fill="none" stroke="#4c78a8" stroke-width="2.8"/>
<circle cx="86.00" cy="462.89" r="3.0" fill="#4c78a8" stroke="white" stroke-width="1.0"/>
<circle cx="126.00" cy="398.39" r="3.0" fill="#4c78a8" stroke="white" stroke-width="1.0"/>
<circle cx="166.00" cy="381.62" r="3.0" fill="#4c78a8" stroke="white" stroke-width="1.0"/>
<circle cx="206.00" cy="388.72" r="3.0" fill="#4c78a8" stroke="white" stroke-width="1.0"/>
<circle cx="246.00" cy="371.57" r="3.0" fill="#4c78a8" stroke="white" stroke-width="1.0"/>
<circle cx="286.00" cy="364.06" r="3.0" fill="#4c78a8" stroke="white" stroke-width="1.0"/>
<circle cx="326.00" cy="351.13" r="3.0" fill="#4c78a8" stroke="white" stroke-width="1.0"/>
<circle cx="366.00" cy="327.67" r="3.0" fill="#4c78a8" stroke="white" stroke-width="1.0"/>
<circle cx="406.00" cy="312.21" r="3.0" fill="#4c78a8" stroke="white" stroke-width="1.0"/>
<circle cx="446.00" cy="304.28" r="3.0" fill="#4c78a8" stroke="white" stroke-width="1.0"/>
<circle cx="486.00" cy="295.82" r="3.0" fill="#4c78a8" stroke="white" stroke-width="1.0"/>
<circle cx="526.00" cy="279.74" r="3.0" fill="#4c78a8" stroke="white" stroke-width="1.0"/>
<circle cx="566.00" cy="275.04" r="3.0" fill="#4c78a8" stroke="white" stroke-width="1.0"/>
<circle cx="606.00" cy="267.34" r="3.0" fill="#4c78a8" stroke="white" stroke-width="1.0"/>
<circle cx="646.00" cy="266.60" r="3.0" fill="#4c78a8" stroke="white" stroke-width="1.0"/>
<circle cx="686.00" cy="260.51" r="3.0" fill="#4c78a8" stroke="white" stroke-width="1.0"/>
<circle cx="726.00" cy="233.96" r="5.2" fill="#4c78a8" stroke="white" stroke-width="1.0"/>
<circle cx="766.00" cy="239.67" r="3.0" fill="#4c78a8" stroke="white" stroke-width="1.0"/>
<circle cx="806.00" cy="243.37" r="3.0" fill="#4c78a8" stroke="white" stroke-width="1.0"/>
<circle cx="846.00" cy="244.92" r="3.0" fill="#4c78a8" stroke="white" stroke-width="1.0"/>
<circle cx="886.00" cy="243.92" r="3.0" fill="#4c78a8" stroke="white" stroke-width="1.0"/>
<circle cx="926.00" cy="257.38" r="3.0" fill="#4c78a8" stroke="white" stroke-width="1.0"/>
<circle cx="966.00" cy="274.44" r="3.0" fill="#4c78a8" stroke="white" stroke-width="1.0"/>
<circle cx="1006.00" cy="291.29" r="3.0" fill="#4c78a8" stroke="white" stroke-width="1.0"/>
<circle cx="1046.00" cy="419.05" r="3.0" fill="#4c78a8" stroke="white" stroke-width="1.0"/>
<line x1="96" y1="90" x2="124" y2="90" stroke="#4c78a8" stroke-width="3"/>
<text x="134" y="94" font-family="Arial" font-size="13" fill="#111827">SemEval: peak L16=0.8111</text>
<polyline points="86.00,143.35 126.00,130.25 166.00,126.45 206.00,122.60 246.00,119.41 286.00,114.57 326.00,108.59 366.00,103.33 406.00,102.89 446.00,102.34 486.00,101.54 526.00,97.06 566.00,98.28 606.00,96.51 646.00,95.63 686.00,94.70 726.00,92.55 766.00,94.56 806.00,94.55 846.00,94.13 886.00,94.20 926.00,97.69 966.00,99.97 1006.00,104.04 1046.00,119.60" fill="none" stroke="#d95f02" stroke-width="2.8"/>
<circle cx="86.00" cy="143.35" r="3.0" fill="#d95f02" stroke="white" stroke-width="1.0"/>
<circle cx="126.00" cy="130.25" r="3.0" fill="#d95f02" stroke="white" stroke-width="1.0"/>
<circle cx="166.00" cy="126.45" r="3.0" fill="#d95f02" stroke="white" stroke-width="1.0"/>
<circle cx="206.00" cy="122.60" r="3.0" fill="#d95f02" stroke="white" stroke-width="1.0"/>
<circle cx="246.00" cy="119.41" r="3.0" fill="#d95f02" stroke="white" stroke-width="1.0"/>
<circle cx="286.00" cy="114.57" r="3.0" fill="#d95f02" stroke="white" stroke-width="1.0"/>
<circle cx="326.00" cy="108.59" r="3.0" fill="#d95f02" stroke="white" stroke-width="1.0"/>
<circle cx="366.00" cy="103.33" r="3.0" fill="#d95f02" stroke="white" stroke-width="1.0"/>
<circle cx="406.00" cy="102.89" r="3.0" fill="#d95f02" stroke="white" stroke-width="1.0"/>
<circle cx="446.00" cy="102.34" r="3.0" fill="#d95f02" stroke="white" stroke-width="1.0"/>
<circle cx="486.00" cy="101.54" r="3.0" fill="#d95f02" stroke="white" stroke-width="1.0"/>
<circle cx="526.00" cy="97.06" r="3.0" fill="#d95f02" stroke="white" stroke-width="1.0"/>
<circle cx="566.00" cy="98.28" r="3.0" fill="#d95f02" stroke="white" stroke-width="1.0"/>
<circle cx="606.00" cy="96.51" r="3.0" fill="#d95f02" stroke="white" stroke-width="1.0"/>
<circle cx="646.00" cy="95.63" r="3.0" fill="#d95f02" stroke="white" stroke-width="1.0"/>
<circle cx="686.00" cy="94.70" r="3.0" fill="#d95f02" stroke="white" stroke-width="1.0"/>
<circle cx="726.00" cy="92.55" r="5.2" fill="#d95f02" stroke="white" stroke-width="1.0"/>
<circle cx="766.00" cy="94.56" r="3.0" fill="#d95f02" stroke="white" stroke-width="1.0"/>
<circle cx="806.00" cy="94.55" r="3.0" fill="#d95f02" stroke="white" stroke-width="1.0"/>
<circle cx="846.00" cy="94.13" r="3.0" fill="#d95f02" stroke="white" stroke-width="1.0"/>
<circle cx="886.00" cy="94.20" r="3.0" fill="#d95f02" stroke="white" stroke-width="1.0"/>
<circle cx="926.00" cy="97.69" r="3.0" fill="#d95f02" stroke="white" stroke-width="1.0"/>
<circle cx="966.00" cy="99.97" r="3.0" fill="#d95f02" stroke="white" stroke-width="1.0"/>
<circle cx="1006.00" cy="104.04" r="3.0" fill="#d95f02" stroke="white" stroke-width="1.0"/>
<circle cx="1046.00" cy="119.60" r="3.0" fill="#d95f02" stroke="white" stroke-width="1.0"/>
<line x1="96" y1="114" x2="124" y2="114" stroke="#d95f02" stroke-width="3"/>
<text x="134" y="118" font-family="Arial" font-size="13" fill="#111827">NER: peak L16=0.9635</text>
<polyline points="86.00,200.71 126.00,175.62 166.00,169.26 206.00,166.67 246.00,154.85 286.00,147.71 326.00,145.68 366.00,143.36 406.00,144.54 446.00,141.40 486.00,133.29 526.00,121.43 566.00,119.93 606.00,111.59 646.00,113.60 686.00,113.45 726.00,114.90 766.00,122.03 806.00,130.72 846.00,136.65 886.00,142.25 926.00,167.50 966.00,192.05 1006.00,204.59 1046.00,236.88" fill="none" stroke="#1b9e77" stroke-width="2.8"/>
<circle cx="86.00" cy="200.71" r="3.0" fill="#1b9e77" stroke="white" stroke-width="1.0"/>
<circle cx="126.00" cy="175.62" r="3.0" fill="#1b9e77" stroke="white" stroke-width="1.0"/>
<circle cx="166.00" cy="169.26" r="3.0" fill="#1b9e77" stroke="white" stroke-width="1.0"/>
<circle cx="206.00" cy="166.67" r="3.0" fill="#1b9e77" stroke="white" stroke-width="1.0"/>
<circle cx="246.00" cy="154.85" r="3.0" fill="#1b9e77" stroke="white" stroke-width="1.0"/>
<circle cx="286.00" cy="147.71" r="3.0" fill="#1b9e77" stroke="white" stroke-width="1.0"/>
<circle cx="326.00" cy="145.68" r="3.0" fill="#1b9e77" stroke="white" stroke-width="1.0"/>
<circle cx="366.00" cy="143.36" r="3.0" fill="#1b9e77" stroke="white" stroke-width="1.0"/>
<circle cx="406.00" cy="144.54" r="3.0" fill="#1b9e77" stroke="white" stroke-width="1.0"/>
<circle cx="446.00" cy="141.40" r="3.0" fill="#1b9e77" stroke="white" stroke-width="1.0"/>
<circle cx="486.00" cy="133.29" r="3.0" fill="#1b9e77" stroke="white" stroke-width="1.0"/>
<circle cx="526.00" cy="121.43" r="3.0" fill="#1b9e77" stroke="white" stroke-width="1.0"/>
<circle cx="566.00" cy="119.93" r="3.0" fill="#1b9e77" stroke="white" stroke-width="1.0"/>
<circle cx="606.00" cy="111.59" r="5.2" fill="#1b9e77" stroke="white" stroke-width="1.0"/>
<circle cx="646.00" cy="113.60" r="3.0" fill="#1b9e77" stroke="white" stroke-width="1.0"/>
<circle cx="686.00" cy="113.45" r="3.0" fill="#1b9e77" stroke="white" stroke-width="1.0"/>
<circle cx="726.00" cy="114.90" r="3.0" fill="#1b9e77" stroke="white" stroke-width="1.0"/>
<circle cx="766.00" cy="122.03" r="3.0" fill="#1b9e77" stroke="white" stroke-width="1.0"/>
<circle cx="806.00" cy="130.72" r="3.0" fill="#1b9e77" stroke="white" stroke-width="1.0"/>
<circle cx="846.00" cy="136.65" r="3.0" fill="#1b9e77" stroke="white" stroke-width="1.0"/>
<circle cx="886.00" cy="142.25" r="3.0" fill="#1b9e77" stroke="white" stroke-width="1.0"/>
<circle cx="926.00" cy="167.50" r="3.0" fill="#1b9e77" stroke="white" stroke-width="1.0"/>
<circle cx="966.00" cy="192.05" r="3.0" fill="#1b9e77" stroke="white" stroke-width="1.0"/>
<circle cx="1006.00" cy="204.59" r="3.0" fill="#1b9e77" stroke="white" stroke-width="1.0"/>
<circle cx="1046.00" cy="236.88" r="3.0" fill="#1b9e77" stroke="white" stroke-width="1.0"/>
<line x1="96" y1="138" x2="124" y2="138" stroke="#1b9e77" stroke-width="3"/>
<text x="134" y="142" font-family="Arial" font-size="13" fill="#111827">DEP: peak L13=0.9430</text>
<line x1="86.00" y1="500" x2="86.00" y2="505" stroke="#111827"/>
<text x="86.00" y="522" text-anchor="middle" font-family="Arial" font-size="12" fill="#111827">0</text>
<line x1="166.00" y1="500" x2="166.00" y2="505" stroke="#111827"/>
<text x="166.00" y="522" text-anchor="middle" font-family="Arial" font-size="12" fill="#111827">2</text>
<line x1="246.00" y1="500" x2="246.00" y2="505" stroke="#111827"/>
<text x="246.00" y="522" text-anchor="middle" font-family="Arial" font-size="12" fill="#111827">4</text>
<line x1="326.00" y1="500" x2="326.00" y2="505" stroke="#111827"/>
<text x="326.00" y="522" text-anchor="middle" font-family="Arial" font-size="12" fill="#111827">6</text>
<line x1="406.00" y1="500" x2="406.00" y2="505" stroke="#111827"/>
<text x="406.00" y="522" text-anchor="middle" font-family="Arial" font-size="12" fill="#111827">8</text>
<line x1="486.00" y1="500" x2="486.00" y2="505" stroke="#111827"/>
<text x="486.00" y="522" text-anchor="middle" font-family="Arial" font-size="12" fill="#111827">10</text>
<line x1="566.00" y1="500" x2="566.00" y2="505" stroke="#111827"/>
<text x="566.00" y="522" text-anchor="middle" font-family="Arial" font-size="12" fill="#111827">12</text>
<line x1="646.00" y1="500" x2="646.00" y2="505" stroke="#111827"/>
<text x="646.00" y="522" text-anchor="middle" font-family="Arial" font-size="12" fill="#111827">14</text>
<line x1="726.00" y1="500" x2="726.00" y2="505" stroke="#111827"/>
<text x="726.00" y="522" text-anchor="middle" font-family="Arial" font-size="12" fill="#111827">16</text>
<line x1="806.00" y1="500" x2="806.00" y2="505" stroke="#111827"/>
<text x="806.00" y="522" text-anchor="middle" font-family="Arial" font-size="12" fill="#111827">18</text>
<line x1="886.00" y1="500" x2="886.00" y2="505" stroke="#111827"/>
<text x="886.00" y="522" text-anchor="middle" font-family="Arial" font-size="12" fill="#111827">20</text>
<line x1="966.00" y1="500" x2="966.00" y2="505" stroke="#111827"/>
<text x="966.00" y="522" text-anchor="middle" font-family="Arial" font-size="12" fill="#111827">22</text>
<line x1="1046.00" y1="500" x2="1046.00" y2="505" stroke="#111827"/>
<text x="1046.00" y="522" text-anchor="middle" font-family="Arial" font-size="12" fill="#111827">24</text>
<text x="540.0" y="550" text-anchor="middle" font-family="Arial" font-size="14" fill="#111827">BERT-large layer</text>
<text transform="translate(24,287.0) rotate(-90)" text-anchor="middle" font-family="Arial" font-size="14" fill="#111827">Fixed-layer major</text>
<text x="86" y="586" font-family="Arial" font-size="12" fill="#6b7280">Raw task major scores are plotted; compare curve shapes and peak layer positions more than absolute task difficulty.</text>
</svg>